<?xml version="1.0" encoding="utf-8"?>
<!-- Generator: Adobe Illustrator 19.0.0, SVG Export Plug-In . SVG Version: 6.00 Build 0)  -->
<svg version="1.1" id="Layer_1" xmlns="http://www.w3.org/2000/svg" xmlns:xlink="http://www.w3.org/1999/xlink" x="0px" y="0px"
	 viewBox="436 150.4 1713.9 294.9" style="enable-background:new 436 150.4 1713.9 294.9;" xml:space="preserve">
<style type="text/css">
	.st0{fill:#B29F6E;}
	.st1{fill:#AE9B75;}
	.st2{font-family:'HiraginoSansGB-W6-GBpc-EUC-H';}
	.st3{font-size:27.6265px;}
	.st4{font-family:'ArialMT';}
	.st5{font-size:126.4237px;}
</style>
<g>
	<g>
		<path id="XMLID_155_" class="st0" d="M767,394.4c10.4,4.4,19.9,8.5,29.6,12.3c1.4,0.5,3.8-0.3,5.2-1.2
			c15.1-10,29.7-20.9,45.2-30.2c12.4-7.4,26.3-9.8,40.8-6.8c16.9,3.5,28.9,17.6,26.9,33.1c-1.9,14.6-11.7,23.3-24.6,28.8
			c-12.7,5.4-25.8,4.6-38.6,1.2c-15.7-4.2-31.1-9.3-46.6-14.3c-3.6-1.2-6-0.7-9.1,1.5c-18,13-37.5,23-59.9,25.9
			c-12.8,1.7-25,0-36.2-7.2c16.4,3.4,32.5,2.5,48.5-2.3c15.8-4.7,30-12.2,43.7-22.3c-1.4-0.8-2.3-1.5-3.2-2c-8.5-3.7-17-7.1-25.4-11
			c-3.1-1.4-5.4-1.2-8.4,0.3c-20.8,10.4-42.6,17.5-66.2,16.4c-13.1-0.6-25.3-4.1-33.5-15.5c-8.5-11.8-4.9-26.3,8.2-32.7
			c13.2-6.4,27-5.9,40.2-1.1c17.3,6.2,34.1,13.9,51.1,21.1c3.1,1.3,5.4,1.6,8.2-0.5c13.4-10,27-19.9,40.5-29.8
			c1.1-0.8,2.2-1.5,3.3-2.2c-0.2-0.4-0.5-0.7-0.7-1.1c-4.9-0.7-9.9-1-14.6-2.1c-23.7-5.6-40-20.8-51.1-41.5
			c-7.6-14-13.6-28.8-20.6-43.2c-2.9-5.9-6.1-11.6-9.7-17c-2.2-3.2-5.5-5.5-8.3-8.2c-0.5,0.2-1.1,0.5-1.6,0.7c0,2.8,0,5.5,0,8.3
			c0,28.1,0,56.2,0.1,84.3c0,1.2,0,2.4,0.1,3.5c0.9,7,3.4,9.1,10.4,9.6c1.1,0.1,2.2,1.1,3.3,1.7c-1,0.6-2,1.8-3,1.8
			c-10.6,0.1-21.2,0.2-31.8,0c-1.1,0-2.1-1.4-3.1-2.2c0.2-0.4,0.4-0.7,0.6-1.1c1.3-0.1,2.6-0.2,3.9-0.3c5.1-0.4,8-3.3,8.1-8.4
			c0.1-2.9-0.4-5.8,0.1-8.6c1.3-7.2-2.2-10.6-8.2-13.8c-35.6-19-73-32.8-112.6-41c-26.4-5.5-52.8-11.5-77.1-24.1
			c-22-11.1-39.8-27-52.9-48.1c-1.6-2.6-2.6-5.6-3.4-8.8c6.9,4.5,13,10,15.9,17.6c4.1,10.9,12.9,16.9,21.4,23.2
			c18.5,13.8,40.4,19.2,62.3,24.4c22.3,5.3,44.8,10.2,67,16.1c29.3,7.7,57.3,19.1,83.8,33.8c0.9,0.5,1.8,0.8,3.4,1.5
			c0.1-2.1,0.3-3.8,0.3-5.6c0-22.4-0.2-44.7,0.1-67.1c0.1-8.6-0.1-16.9-7.6-23.3c12.9-0.3,25,1.3,34.7,10.7c11,10.7,17,24.4,23.3,38
			c8.7,18.6,17.7,37,30.8,53c1.2,1.4,2.4,2.8,3.6,4.2c0.9,1,1.8,2,3.9,2.8c0-2,0-4.1,0-6.1c0-29.3,0-58.5,0-87.8
			c0-8-0.4-8.4-8.7-8.5c-1,0-2-0.1-3.3-0.2c0-2.1,0-4.1,0-6.8c5.5,0,11,0,16.5,0c6.6,0,13.1,0,19.7,0c6,0,6.1,0.1,5.1,7
			c-1.8,0-3.8,0-5.8,0c-5.8,0.1-7.4,1.6-7.4,7.5c-0.1,10.8-0.1,21.5-0.1,32.3c0,22.9,0,45.8,0,68.6c0,1.6,0,3.2,0.5,4.9
			c15.4-41.9,37.4-79.8,68.9-113.1c-17.5,0-33.7,0-50.4,0c0-2.5,0-4.6,0-6.6c27,0,53.8,0,82.1,0c-1.8,3-2.8,5-4.1,6.7
			c-13.5,18-27.5,35.7-40.3,54.1c-12.6,18.1-22.2,37.9-28.9,59c-0.4,1.4-0.8,2.8-1.6,5.2c7.4-5.3,13.8-10.1,20.4-14.6
			c33.2-22.6,69.3-39,107.9-49.6c25.2-6.9,50.9-12.2,76.3-18.3c24.4-5.8,47.6-14.3,66.1-32.3c3-2.9,5.6-6.2,8-9.6
			c5.2-7.3,11.6-13.2,19.6-17.2c0.4,0.4,0.8,0.7,1.3,1.1c-4.4,5.6-8.3,11.7-13.4,16.6c-7.7,7.4-16,14.3-24.5,20.8
			c-19.2,15-41.7,22.7-65,28.6c-32.7,8.2-65.7,15-97.2,27.4c-32,12.7-62.1,28.8-89.7,49.5c-0.8,0.6-1.4,1.3-2.8,2.5
			c1.8,0.2,2.9,0.4,4,0.4c14.8,0,29.6,0.1,44.4,0c9.4-0.1,13-3.9,13.2-13.2c0.1-2.3,1.1-4.6,1.7-6.9c0.5,2.2,1.3,4.5,1.4,6.7
			c0.2,6.2,0.1,12.4,0,18.7c0,0.3-0.1,0.7-0.4,1.9c-1.6,0-3.3,0-5.1,0c-21.5,0-43.1,0-64.6,0.1c-2.1,0-4.8,0.7-6.3,2.1
			c-14.3,13.3-29.5,25.5-46.2,35.7C768.8,392.9,768.2,393.4,767,394.4z M806.8,410.5c2.2,1,3.7,1.9,5.2,2.3
			c16.8,4.6,33.4,9.8,50.4,13.6c12.7,2.8,24.7-0.3,35.2-8.3c14.4-10.9,13.4-30.4-1.9-39c-8.8-4.9-18.2-5.8-27.8-3.8
			C843.8,380.3,826.5,396.6,806.8,410.5z M750,395c0.1-0.7,0.2-1.4,0.3-2.1c-17.2-6.5-34.2-13.7-51.7-19.4
			c-11.2-3.7-22.9-3.5-33.7,2.7c-8.1,4.7-10.3,14.2-4.1,21c4.1,4.5,9.9,8.1,15.6,10.3c9.7,3.7,20.2,2.9,30.4,1.5
			C722,406.8,736.3,402,750,395z"/>
		<path id="XMLID_140_" class="st0" d="M879.2,299.4c-2.4-25.1,5.5-46.1,21.6-64.9C907.2,257.8,895.8,292.9,879.2,299.4z"/>
		<path id="XMLID_139_" class="st0" d="M986.1,331.2c-24.5-2-45.3-11.4-61.6-30.9c7.8-4,14.9-2.3,21.8,0.3
			C962.4,306.9,975.3,317.6,986.1,331.2z"/>
		<path id="XMLID_138_" class="st0" d="M565.7,333c11.3-16.4,44.1-38.9,61.9-32.5C619.7,316.7,586.5,334.3,565.7,333z"/>
		<path id="XMLID_137_" class="st0" d="M649.7,234.3c16.1,19.1,24.2,40,21.4,66.3c-3.8-3.3-7.3-5.6-9.7-8.7
			c-10.2-13.6-13.4-29.3-13.3-45.9c0-3,0.3-6,0.6-9C648.8,236.4,649.2,235.8,649.7,234.3z"/>
		<path id="XMLID_136_" class="st0" d="M938.3,226.4c3.3,23.5-10.9,56.3-25.9,56.3C911.7,262.8,921.3,239.4,938.3,226.4z"/>
		<path id="XMLID_135_" class="st0" d="M612.7,226.5c17.2,14.6,25,33.6,25.8,57.6c-3.9-2.3-7.3-3.6-9.8-5.8
			c-9.5-8.4-13.3-20-15.6-31.9c-1.2-6.3-1.3-12.9-2-19.4C611.7,226.8,612.2,226.7,612.7,226.5z"/>
		<path id="XMLID_134_" class="st0" d="M945.2,342.6c-25.7,0.5-46.6-8.6-59.1-26c4.8-0.5,9.1-1.8,13.1-1.2
			C917.8,317.9,931.2,329.4,945.2,342.6z"/>
		<path id="XMLID_133_" class="st0" d="M606.3,342.6c13.5-16.4,43.4-34.3,57.6-24.9C649.2,336,629.7,343,606.3,342.6z"/>
		<path id="XMLID_132_" class="st0" d="M594.8,292.3c-6.5,15.5-37.2,28.5-51.8,28.6C550.2,304,579,287.9,594.8,292.3z"/>
		<path id="XMLID_131_" class="st0" d="M959.1,290.6c14.8-6.2,40.9,10.8,49.8,26.9C996.4,319.2,964.6,305.5,959.1,290.6z"/>
		<path id="XMLID_130_" class="st0" d="M606.5,274.8c-6-1.2-9.6-5.3-12.9-9.8c-7.1-9.7-14.8-29.8-16.6-42.2
			C593.7,233.7,607.8,255,606.5,274.8z"/>
		<path id="XMLID_129_" class="st0" d="M943.7,274.3c-0.9-16.9,11.7-39.1,29.1-51.3C974.8,238.9,955.2,273.4,943.7,274.3z"/>
		<path id="XMLID_128_" class="st0" d="M580.8,267c-14.7-2.6-33.6-27.7-34.5-45.4C560.2,225.3,579.2,249.9,580.8,267z"/>
		<path id="XMLID_127_" class="st0" d="M1004.2,220.8c-0.6,18.2-19.9,44-34.9,46.2C973.9,246.1,986.2,231.4,1004.2,220.8z"/>
		<path id="XMLID_126_" class="st0" d="M515,311.5c9.6-16.9,37.9-31.7,49.2-25.8C551.3,301.1,535.2,309.2,515,311.5z"/>
		<path id="XMLID_125_" class="st0" d="M1035.2,310.6c-13,1.8-39.9-12.8-47.1-25.3C1001.9,281.4,1026.1,297.1,1035.2,310.6z"/>
		<path id="XMLID_124_" class="st0" d="M1001.9,258.1c3.7-17.8,15.2-29.3,29.3-39C1032.7,233.2,1013.3,259.2,1001.9,258.1z"/>
		<path id="XMLID_123_" class="st0" d="M517.8,218.1c15.2,10.5,27,22.1,31,41.7c-4.1-1.8-7.5-2.4-9.9-4.3
			C527.3,246,522.3,232.8,517.8,218.1z"/>
		<path id="XMLID_122_" class="st0" d="M540.8,277.4c-12.1,12.2-26.1,17.8-42.8,17.4C504,282.2,529.2,271.5,540.8,277.4z"/>
		<path id="XMLID_121_" class="st0" d="M1052.7,294.1c-16.9,1.2-30.8-4.8-43-16.7c4.4-2.9,8.7-2.8,13.2-1.8
			C1034.9,278.3,1044.3,285.3,1052.7,294.1z"/>
		<path id="XMLID_120_" class="st0" d="M1055.8,216.7c0.1,12.4-14.6,31.7-25.2,33C1030.2,238.7,1046.8,218.8,1055.8,216.7z"/>
		<path id="XMLID_119_" class="st0" d="M520.8,249.7c-11.3-1.3-25.5-20-26.1-33.7C508,223.7,516.5,234.5,520.8,249.7z"/>
		<path id="XMLID_118_" class="st0" d="M511.8,271.1c-7.8,7.9-22.4,11.2-31.9,7.3C486.3,269.3,506.2,262.9,511.8,271.1z"/>
		<path id="XMLID_117_" class="st0" d="M1070.9,278.7c-12.1,3.4-22.4,0.1-32-7C1045.3,263.9,1062.6,267.7,1070.9,278.7z"/>
		<path id="XMLID_116_" class="st0" d="M1073.8,215.5c0.4,11.6-12.6,30.5-22,28.4C1055.9,232,1063.2,222.7,1073.8,215.5z"/>
		<path id="XMLID_115_" class="st0" d="M499,244.2c-10.7-0.5-22.1-15.3-22.1-28.4C488,222.7,494.3,232.5,499,244.2z"/>
		<path id="XMLID_114_" class="st0" d="M443.2,238c12.4-0.5,22.8,1.5,31.5,9.7C467.5,253.1,456.8,249.8,443.2,238z"/>
		<path id="XMLID_113_" class="st0" d="M1106.2,238.5c-8.1,9.8-22.5,14.5-29.8,9.7C1081.8,240.9,1097.4,235.8,1106.2,238.5z"/>
		<path id="XMLID_112_" class="st0" d="M1086.1,265.8c-10.4,4.2-18.7,1.1-26.6-4.8C1065.3,253.9,1076.2,255.7,1086.1,265.8z"/>
		<path id="XMLID_111_" class="st0" d="M491.2,260.6c-8.6,7.3-17.9,9-26,5C471.3,256.8,484.2,254.1,491.2,260.6z"/>
		<path id="XMLID_110_" class="st0" d="M472.2,231.1c-10.8-5.6-15.4-14.6-17.6-25.5C463.2,208.2,472.2,221.3,472.2,231.1z"/>
		<path id="XMLID_109_" class="st0" d="M1095.2,205.5c-1.6,11-6.1,19.9-17.4,25.6C1079.8,219,1086.1,211.2,1095.2,205.5z"/>
	</g>
	<g>
		<path id="XMLID_154_" class="st0" d="M1442.1,187.7c4-7.3-0.4-14.3-0.5-22c1,1.3,2.3,2.4,3,3.9c6.2,11.9,4.8,23.4-1.6,34.8
			c-1.3,2.4-3.2,4.6-4.4,7c-0.8,1.6-1.5,4.6-0.7,5.3c1.4,1.2,4.2,2.1,6,1.6c7.7-2.1,14.1-6.2,18.6-12.9c0.7-1.1,1.4-2.1,2.2-3.1
			c0.2-0.2,0.7-0.2,2.3-0.6c-0.6,2.9-0.7,5.6-1.8,7.7c-4.8,9.8-13.2,15.3-22.9,19.8c-9.8,4.5-19.2,9.9-28.7,15
			c-1.5,0.8-2.8,2.2-4.3,3.4c8.5,4.8,14.9,3.3,24.5-5.1c0.4,6-5.5,11.9-13.4,13c-3.8,0.5-7.7,0.3-11.6,0.1
			c-14.1-0.5-21.6,6.5-21.7,20.7c-0.2,14.9,0,29.9-0.1,44.8c-0.1,5.3-0.3,10.7-1.3,15.9c-3.4,18.1-18.8,27.3-38.5,23.3
			c-16.2-3.2-25-13.6-25.2-30.1c-0.2-16.2-0.1-32.5-0.1-48.7c0-7-1.6-13.5-5.9-19.1c-4.8-6.3-11.4-7.1-18.8-7
			c-5.5,0.1-11.3-0.8-16.6-2.5c-4.1-1.3-7.3-4.7-7.7-11.1c6.8,8,14.3,10.3,24.3,6.4c-1.7-1.8-2.8-3.6-4.3-4.4
			c-10.4-5.8-20.7-11.7-31.4-16.9c-6.8-3.3-12.9-7.2-16.7-13.8c-1.4-2.4-2-5.2-3-7.8c0.5-0.4,1-0.7,1.6-1.1c1.1,0.9,2.1,1.8,3.2,2.6
			c4.7,3.7,9.1,7.8,14.3,10.8c2,1.2,5.4-0.3,8.2-0.5c-0.5-2.5-0.3-5.5-1.6-7.4c-5.7-8.7-9.8-17.7-8.6-28.4
			c0.7-5.8,2.3-11.3,7.8-16.6c-0.6,8.6-5.8,15.6-1.1,24.6c1.8-3.5,2.9-6.1,4.3-8.4c5.7-9.1,11.3-18.4,17.5-27.2
			c1.9-2.8,5.3-4.7,9.3-1.4c-0.9,1.3-1.5,2.6-2.5,3.5c-22.7,22.1-19.6,65.3,13.3,84.2c6.7,3.8,13.1,8.2,19.3,12.9
			c7.8,5.9,11.8,14,11.9,23.8c0.2,15.3-0.1,30.6,0.4,45.9c0.2,6,1.2,12.1,2.9,17.8c2.2,7.5,7.7,10.4,16.9,10.4c9,0,14.6-3,16.9-10.4
			c1.5-4.8,2.4-10.1,2.5-15.1c0.3-16.4,0.3-32.8,0.1-49.2c-0.2-13.7,5.6-24,16.2-32.2c7.4-5.7,15.5-11,21.6-17.9
			c17.1-19.6,18.8-51.6,0.7-70.9c-1-1.1-0.9-3.1-1.3-4.7c1.8,0.3,4.1,0,5.3,1.1c7.9,6.8,12.2,16,15.4,25.7c1.2,3.7,2.8,7.4,4.2,11
			C1440.8,188,1441.4,187.8,1442.1,187.7z"/>
		<path id="XMLID_153_" class="st0" d="M1656.9,266.7c0,31,0,61.2,0,91.7c-5.4,0-10.4,0-16.1,0c0-23.3,0-46.7,0-70
			c-0.5-0.1-1-0.2-1.4-0.4c-9.7,24.2-19.5,48.3-29.8,74.1c-10.7-25.3-20.9-49.3-31.1-73.3c-0.4,0.1-0.8,0.1-1.3,0.2
			c0,23,0,46,0,69.4c-3.1,0-5.4,0-8.1,0c0-30.5,0-60.7,0-91.7c5.9,0,11.7-0.3,17.5,0.2c1.3,0.1,2.8,2.5,3.5,4.1
			c7.7,18.3,15.2,36.7,22.7,55.1c0.3,0.8,0.9,1.5,1.6,2.7c7.7-19.3,15.3-38,22.5-56.9c1.6-4.3,3.7-5.7,8-5.3
			C1648.8,266.9,1652.8,266.7,1656.9,266.7z"/>
		<path id="XMLID_152_" class="st0" d="M1810.2,358.3c0-30.6,0-60.7,0-91.2c18.7,0,37.4,0,56.8,0c0.1,1.7,0.2,3.6,0.3,6.2
			c-13.2,0-26,0-39.3,0c0,11.4,0,22.2,0,33.7c11.9,0,23.8,0,36,0c0,2.6,0,4.6,0,7.2c-11.9,0-23.8,0-36.1,0c0,12.7,0,24.8,0,37.4
			c13,0,25.8,0,39,0c0,2.5,0,4.4,0,6.7C1847.9,358.3,1829.3,358.3,1810.2,358.3z"/>
		<path id="XMLID_151_" class="st0" d="M2151.2,351.8c-0.2,2.9-0.3,4.5-0.5,6.5c-18.8,0-37.3,0-56.2,0c0-30.4,0-60.7,0-91.4
			c18.6,0,37.1,0,56.1,0c0,2,0,3.9,0,6.5c-10.7,0-21.3,0-31.9,0c-7.5,0-7.5,0-7.5,7.6c0,6.8,0.2,13.6,0,20.5c-0.2,4.2,1,5.9,5.6,5.7
			c10.3-0.3,20.6-0.1,31.4-0.1c0.1,2.4,0.2,4.3,0.3,7c-12.4,0-24.4,0-36.9,0c0,12.8,0,24.8,0,37.7
			C2124.9,351.8,2137.9,351.8,2151.2,351.8z"/>
		<path id="XMLID_148_" class="st0" d="M1666.8,357.9c12.3-30.7,24.6-61.2,37.5-93.2c13.3,31.8,26.1,62.3,39.4,94
			c-6,0-11.2,0.2-16.4-0.1c-1.1-0.1-2.6-1.8-3.1-3.1c-2.4-5.6-4.7-11.2-6.6-17c-1.1-3.4-3-4.5-6.5-4.4c-7.4,0.2-14.8,0.2-22.1,0
			c-3.5-0.1-5.3,0.9-6.4,4.4c-1.6,5.1-4.1,9.9-5.6,15C1675.2,359,1671.9,359.6,1666.8,357.9z M1686.7,328.2c9.2,0,17.4,0,26.4,0
			c-4.4-11-8.5-21.4-13.2-33.1C1695.2,306.9,1691.1,317.2,1686.7,328.2z"/>
		<path id="XMLID_147_" class="st0" d="M2040.1,313.8c0,15.4,0,29.7,0,44.5c-5.8,0-11.2,0-17.1,0c0-30.3,0-60.6,0-91.3
			c19.2,0,38.3,0,57.8,0c0,2,0,3.9,0,6.5c-13.4,0-26.7,0-40.4,0c0,11.4,0,22,0,33.8c5.5,0,10.9,0,16.4,0c5.7,0,11.4,0.1,17.1-0.2
			c4.8-0.2,5.8,1.9,4.2,6.6C2065.8,313.8,2053.2,313.8,2040.1,313.8z"/>
		<path id="XMLID_146_" class="st0" d="M1799.1,267c0,2.1,0,4,0,6.8c-7.9,0-15.5,0-23.6,0c0,3,0,5.2,0,7.3c0,24-0.1,47.9,0.1,71.9
			c0,4.6-1.3,6-6,5.8c-11.6-0.3-11.5-0.1-11.5-11.8c0.1-22.5-0.1-45,0.2-67.5c0.1-5-1.6-6.4-6.3-6.1c-5.6,0.4-11.3,0.1-17.3,0.1
			c0-2.4,0-4.3,0-6.6C1756.2,267,1777.4,267,1799.1,267z"/>
		<path id="XMLID_145_" class="st0" d="M1464.3,351.7c0,2.7,0,4.4,0,6.7c-18.9,0-37.5,0-56.6,0c0-30.6,0-60.8,0-91.4
			c5.7,0,10.9,0,16.9,0c0,28.1,0,56.2,0,84.7C1438.2,351.7,1450.9,351.7,1464.3,351.7z"/>
		<path id="XMLID_144_" class="st0" d="M1494.8,358.5c-5.9,0-11,0-16.9,0c0-28.2,0-56.2,0-85c-8.4,0-16.1,0-24,0c0-2.5,0-4.2,0-6.4
			c21.5,0,42.9,0,64.7,0c0.1,1.9,0.2,3.6,0.3,6.4c-6.2,0-12.2,0.2-18.2-0.1c-4.5-0.2-6.1,1.3-6,6c0.2,24.3,0.1,48.7,0.1,73
			C1494.8,354.2,1494.8,356.1,1494.8,358.5z"/>
		<path id="XMLID_143_" class="st0" d="M1918.4,266.8c5.7,0,10.8,0,16.4,0c0,28.1,0,56,0,84.7c13.5,0,26.4,0,39.7,0
			c0,2.7,0,4.6,0,6.8c-18.7,0-37.2,0-56.1,0C1918.4,327.9,1918.4,297.6,1918.4,266.8z"/>
		<path id="XMLID_142_" class="st0" d="M1530.3,266.9c5.7,0,11,0,16.9,0c0,2.1,0,3.9,0,5.6c0,26.9-0.1,53.7,0.1,80.6
			c0,4.4-1.3,6-5.6,5.6c-3.6-0.3-7.3-0.1-11.4-0.1C1530.3,328,1530.3,297.7,1530.3,266.9z"/>
		<path id="XMLID_141_" class="st0" d="M1999.9,358.5c-5.4,0-10.5,0-16,0c0-30.4,0-60.7,0-91.4c5.1,0,10.3,0,16,0
			C1999.9,297.2,1999.9,327.5,1999.9,358.5z"/>
		<text id="XMLID_108_" transform="matrix(1 0 0 1 1116.4595 423.0706)" class="st1 st2 st3">Bring the most premium NZ products to the world</text>
	</g>
	<text transform="matrix(1 0 0 1 1109.8413 356.6195)" class="st0 st4 st5">NZ</text>
</g>
</svg>
